<?xml version="1.0" standalone="no"?>
<!DOCTYPE svg PUBLIC "-//W3C//DTD SVG 20010904//EN"
 "http://www.w3.org/TR/2001/REC-SVG-20010904/DTD/svg10.dtd">
<svg version="1.0" xmlns="http://www.w3.org/2000/svg"
 width="700.000000pt" height="700.000000pt" viewBox="0 0 700.000000 700.000000"
 preserveAspectRatio="xMidYMid meet">
<metadata>
Created by potrace 1.14, written by Peter Selinger 2001-2017
</metadata>
<g transform="translate(0.000000,700.000000) scale(0.100000,-0.100000)"
fill="#000000" stroke="none">
<path d="M3560 6981 c33 -26 311 -252 380 -310 83 -70 96 -81 225 -192 66 -56
140 -121 166 -143 40 -36 161 -143 193 -171 39 -34 213 -191 221 -199 6 -6 48
-45 94 -86 46 -41 107 -97 136 -125 29 -27 102 -97 164 -154 383 -356 1323
-1282 1750 -1723 l103 -107 -6 52 c-3 29 -8 75 -11 102 -3 28 -8 61 -10 75 -3
14 -7 43 -10 65 -10 71 -66 316 -95 414 -72 243 -14 166 -465 616 -344 343
-739 729 -881 862 -22 21 -108 102 -190 180 -82 78 -161 152 -174 163 -14 12
-52 47 -85 78 -116 109 -191 178 -284 262 -52 47 -117 106 -145 132 -28 26
-66 55 -84 63 -56 28 -366 103 -492 120 -19 3 -45 7 -58 10 -13 2 -51 7 -85
10 -34 4 -78 8 -97 11 -19 2 -91 6 -160 9 -125 5 -125 5 -100 -14z"/>
<path d="M1745 6527 c-120 -70 -261 -162 -315 -204 -8 -6 -51 -40 -95 -74
-424 -330 -812 -824 -1020 -1299 -25 -58 -52 -118 -59 -135 -42 -94 -124 -346
-152 -465 -40 -174 -66 -313 -79 -430 -27 -231 -27 -670 0 -831 2 -13 6 -46 9
-74 9 -78 23 -156 51 -285 30 -141 108 -389 174 -555 36 -89 190 -403 201
-410 4 -3 8 28 10 68 1 39 3 97 5 127 1 30 5 132 9 225 4 94 9 197 12 230 2
33 7 101 9 150 3 50 7 115 10 145 3 30 7 91 10 135 2 44 7 103 10 130 8 71 14
132 20 195 8 85 54 407 70 495 29 152 72 348 91 410 8 28 22 75 31 105 52 176
138 394 200 503 18 33 33 61 33 63 0 10 80 128 135 199 120 154 260 271 419
351 50 25 91 45 91 44 0 -1 12 3 28 9 15 6 38 13 50 16 12 2 47 12 77 20 73
20 163 29 290 29 138 1 222 -9 350 -39 58 -14 115 -27 127 -30 44 -10 227 -77
321 -117 345 -147 788 -428 1234 -783 95 -76 182 -146 193 -156 22 -21 94 -81
175 -149 50 -42 282 -243 306 -265 6 -5 41 -37 79 -70 38 -33 94 -82 125 -110
30 -27 86 -77 124 -110 38 -33 83 -73 101 -90 17 -16 69 -64 115 -105 45 -41
99 -90 119 -109 250 -233 394 -373 787 -766 l461 -462 18 41 c10 23 26 59 35
81 42 96 150 426 150 459 0 13 -20 35 -244 270 -433 454 -945 966 -1252 1253
-23 21 -70 65 -106 98 -35 33 -106 98 -158 145 -52 47 -108 99 -125 115 -17
17 -45 41 -61 54 -16 12 -47 39 -69 59 -36 33 -93 82 -310 267 -53 45 -343
283 -370 302 -6 5 -42 33 -80 64 -111 89 -417 316 -575 427 -80 56 -150 105
-155 109 -16 12 -171 114 -280 185 -306 197 -532 330 -745 437 -158 81 -424
191 -457 191 -10 -1 -81 -38 -158 -83z"/>
<path d="M2835 3254 c-467 -98 -771 -443 -1005 -1139 -26 -77 -51 -156 -55
-175 -4 -19 -12 -41 -17 -47 -6 -7 -8 -13 -5 -13 3 0 1 -15 -4 -32 -6 -18 -12
-44 -15 -58 -3 -14 -11 -50 -19 -80 -16 -61 -45 -194 -50 -225 -2 -11 -6 -36
-10 -55 -4 -19 -9 -44 -10 -55 -2 -11 -8 -47 -14 -80 -16 -90 -34 -205 -46
-295 -3 -25 -8 -56 -10 -70 -2 -14 -6 -50 -9 -80 -3 -30 -10 -89 -16 -130 -15
-121 -18 -114 58 -163 122 -79 188 -116 338 -191 141 -70 382 -172 389 -164 2
1 22 78 44 169 22 91 48 190 57 220 22 75 83 260 93 284 5 11 14 34 21 50 8
17 14 35 16 42 9 44 177 364 196 371 4 2 8 8 8 14 0 17 124 170 186 229 136
129 298 220 464 260 125 31 378 33 510 5 47 -10 92 -19 100 -21 8 -2 62 -19
120 -38 302 -101 578 -259 985 -563 105 -78 201 -151 215 -163 14 -11 30 -24
35 -28 6 -5 79 -64 163 -131 l154 -124 51 44 c110 92 257 236 362 352 87 97
88 99 66 122 -67 70 -407 390 -511 480 -25 21 -47 42 -50 45 -8 8 -153 134
-260 225 -390 329 -794 615 -1235 877 -62 36 -323 164 -390 191 -156 63 -344
118 -480 141 -75 13 -358 12 -420 -1z"/>
</g>
</svg>
